
<svg version="1.0" xmlns="http://www.w3.org/2000/svg"
 width="240.000000pt" height="226.000000pt" viewBox="0 0 240.000000 226.000000"
 preserveAspectRatio="xMidYMid meet">

<g transform="translate(0.000000,226.000000) scale(0.100000,-0.100000)"
fill="#CCCCCC" stroke="none">
<path d="M1375 2207 c-94 -53 -113 -181 -38 -259 l26 -27 -69 -193 -69 -193
-62 3 c-38 2 -84 -3 -119 -13 -31 -9 -62 -14 -69 -11 -7 2 -38 45 -69 94 l-57
90 32 46 c26 36 34 59 37 105 5 74 -10 123 -57 174 -47 52 -101 77 -172 77
-206 1 -308 -247 -163 -394 50 -50 107 -69 188 -63 l71 5 55 -86 c30 -47 56
-89 58 -94 2 -4 -12 -27 -31 -50 -38 -47 -77 -115 -77 -136 0 -7 -6 -15 -13
-18 -17 -6 -481 54 -485 64 -27 81 -121 124 -192 87 -46 -24 -70 -62 -70 -112
0 -86 48 -133 134 -133 38 0 52 6 85 35 l38 35 232 -30 c128 -17 236 -30 240
-30 5 0 11 -24 14 -52 4 -30 23 -85 43 -127 l36 -73 -73 -77 c-41 -42 -120
-124 -177 -182 l-103 -106 -42 21 c-91 45 -216 28 -296 -40 -64 -55 -95 -124
-95 -209 1 -83 17 -126 71 -185 110 -124 300 -121 411 5 77 87 91 200 38 304
l-24 49 176 183 177 182 52 -27 c29 -14 70 -30 90 -34 21 -4 38 -13 37 -20 -1
-7 -2 -52 -2 -102 l-2 -89 -44 -44 c-49 -48 -62 -80 -52 -131 7 -39 61 -92
102 -102 64 -16 146 41 160 110 7 42 -18 99 -58 129 -26 19 -28 25 -27 91 0
39 3 89 7 110 6 36 11 40 52 51 25 7 52 15 61 19 12 5 54 -53 187 -258 95
-146 174 -271 177 -278 3 -7 -4 -31 -15 -53 -25 -49 -25 -88 -1 -141 26 -57
72 -87 140 -92 46 -3 62 0 91 20 53 36 80 83 80 140 0 60 -19 98 -67 135 -30
23 -47 28 -94 29 l-58 1 -78 119 c-43 65 -123 187 -177 271 l-98 152 38 50
c22 28 44 50 50 51 11 0 240 -97 283 -119 12 -7 21 -22 21 -34 0 -33 35 -84
69 -102 43 -22 93 -19 132 8 43 29 59 60 59 116 0 37 -5 49 -39 82 -35 35 -44
39 -88 39 -35 0 -58 -6 -76 -20 l-26 -21 -148 64 -148 64 0 111 -1 110 195 81
196 81 40 -39 c62 -60 99 -75 180 -75 80 0 129 20 181 76 53 55 68 95 68 173
0 101 -47 179 -139 228 -53 28 -164 30 -215 3 -91 -47 -142 -127 -146 -225 -2
-34 -5 -65 -7 -67 -2 -3 -91 -41 -198 -85 l-194 -80 -14 23 c-22 34 -109 116
-131 123 -17 6 -15 17 37 163 30 86 62 176 70 200 13 38 18 42 47 42 40 0 93
34 124 80 20 29 23 45 20 91 -9 127 -135 197 -243 136z m136 -86 c37 -38 39
-82 4 -116 -54 -54 -145 -13 -145 65 0 30 53 80 85 80 16 0 38 -12 56 -29z
m-755 -117 c106 -50 110 -203 8 -261 -102 -59 -224 10 -224 126 0 114 112 184
216 135z m1430 -273 c23 -10 54 -36 70 -57 25 -32 29 -46 29 -99 0 -53 -5 -68
-29 -100 -32 -41 -95 -75 -141 -75 -36 0 -104 30 -127 56 -76 86 -48 228 55
275 53 24 91 24 143 0z m-920 -304 c57 -29 116 -89 140 -144 25 -56 24 -167
-2 -224 -85 -184 -311 -231 -462 -95 -111 101 -116 293 -9 404 31 33 87 67
137 83 46 15 142 3 196 -24z m-1071 -97 c15 -16 17 -26 9 -48 -17 -50 -94 -39
-94 14 0 49 52 70 85 34z m1748 -461 c29 -47 -32 -101 -73 -64 -23 20 -25 37
-9 66 13 24 66 23 82 -2z m-1498 -369 c116 -72 118 -252 3 -327 -35 -24 -52
-28 -108 -28 -56 0 -73 4 -108 28 -128 84 -109 278 33 344 42 19 135 11 180
-17z m713 -12 c21 -21 14 -64 -10 -75 -47 -21 -92 22 -68 67 12 23 58 28 78 8z
m687 -253 c52 -51 16 -145 -54 -145 -46 0 -85 39 -85 85 0 74 88 112 139 60z"/>
</g>
</svg>